:SAMPLES-PER-SECOND 30
:FULLY-SPECIFIED
:DEGREES
599
root  17.1841 37.8432 -0.807379 -123.533 -85.0023 113.483
RightUpLeg  20.4267 -0.916345 -11.4123
RightLeg  23.0458 -0.83907 -0.537855
RightFoot  -20.0993 0.968191 14.7282
RightToes  -1.33073e-015 0 -3.6325e-017
Spine  6.20445 1.44905 -4.90724
Spine1  11.5587 1.10702 -0.3836
HEad  -12.9624 6.96322 -8.82604
LeftShoulder1  0.366272 2.3605 -25.8255
LeftArm  -11.6381 1.95936 -35.3408
LeftForeArm  73.1022 -79.1315 -90.3188
LeftHand  0.0104286 3.57344 -2.03411
RightShoulder  -0.25452 -4.3071 24.366
RightArm  -11.2104 -12.0655 35.9946
RightForeArm  100.378 76.188 126.097
RightHand  -0.092216 0.440726 -1.89455
LeftUpLeg  -14.5692 2.87567 -5.30581
LeftLeg  19.3895 -0.215028 0.296997
LeftFoot  4.58095 -0.764227 5.27079
LeftToes  -1.03319e-009 7.52634e-011 -3.26162e-012
600
root  16.0235 37.8108 -0.530366 -123.461 -84.573 113.397
RightUpLeg  16.5511 1.21449 -11.6531
RightLeg  32.9591 -1.41633 -1.23567
RightFoot  -15.0184 0.544282 20.1381
RightToes  -1.33073e-015 0 -3.6325e-017
Spine  5.98249 1.70327 -5.10392
Spine1  11.7363 1.30352 -1.32743
HEad  -12.5606 4.90631 -7.14273
LeftShoulder1  0.427885 2.16314 -25.7016
LeftArm  -11.2641 2.36291 -35.8753
LeftForeArm  70.9488 -79.1523 -87.4661
LeftHand  0.00982669 3.83525 -2.40253
RightShoulder  -0.274605 -4.36261 24.7266
RightArm  -11.1945 -13.0541 35.9058
RightForeArm  100.408 76.2616 125.763
RightHand  -0.0892101 0.330387 -1.85732
LeftUpLeg  -14.198 2.83214 -6.16299
LeftLeg  22.557 0.289843 0.476892
LeftFoot  1.4638 -0.713515 6.26674
LeftToes  -1.03319e-009 7.52634e-011 -3.26162e-012
601
root  14.8736 37.9665 -0.21506 -122.618 -84.5359 112.286
RightUpLeg  10.9235 2.86931 -11.736
RightLeg  44.2487 -1.20786 -1.53733
RightFoot  -3.22263 -0.918469 15.402
RightToes  -1.33073e-015 0 -3.6325e-017
Spine  6.57976 1.45754 -5.34511
Spine1  10.9202 0.939742 -1.24216
HEad  -14.1168 2.03081 -2.10191
LeftShoulder1  0.386227 2.28864 -25.5644
LeftArm  -11.2113 2.99298 -35.8047
LeftForeArm  71.434 -79.1567 -87.9037
LeftHand  0.0338431 3.10908 -2.70508
RightShoulder  -0.276277 -4.36926 24.6798
RightArm  -10.743 -12.8279 35.7959
RightForeArm  98.6704 76.4862 124.289
RightHand  -0.091672 0.441494 -1.88325
LeftUpLeg  -12.2528 2.7801 -6.79987
LeftLeg  23.2173 0.598825 0.628357
LeftFoot  -0.635978 -0.646612 6.92389
LeftToes  -1.03319e-009 7.52634e-011 -3.26162e-012
602
root  13.7685 38.1372 -0.0328892 -129.961 -83.7654 118.976
RightUpLeg  4.88325 5.73592 -11.2382
RightLeg  54.081 0.0364349 -0.304785
RightFoot  7.92555 -1.0594 5.98356
RightToes  -1.33073e-015 0 -3.6325e-017
Spine  7.39075 1.69601 -6.48947
Spine1  10.3355 0.885266 -0.74311
HEad  -13.4749 3.78024 -2.70073
LeftShoulder1  0.345336 2.41208 -25.4021
LeftArm  -11.0974 3.51313 -34.8826
LeftForeArm  72.8539 -79.1414 -89.8685
LeftHand  0.0258991 3.39304 -2.68985
RightShoulder  -0.258598 -4.30721 24.8291
RightArm  -10.089 -12.1757 35.7831
RightForeArm  96.9438 76.7122 122.732
RightHand  -0.098215 0.363471 -2.02451
LeftUpLeg  -9.49438 4.17266 -7.23222
LeftLeg  23.0507 0.515151 0.589043
LeftFoot  -2.50502 -0.530734 7.05252
LeftToes  -1.03319e-009 7.52634e-011 -3.26162e-012
603
root  12.7574 38.2506 0.145837 -129.062 -83.5419 117.923
RightUpLeg  -0.146623 6.77309 -11.2421
RightLeg  60.3422 1.78438 2.9042
RightFoot  4.98524 -1.11843 8.01171
RightToes  -1.33073e-015 0 -3.6325e-017
Spine  7.44642 1.5514 -7.4403
Spine1  10.4562 0.436957 -0.521047
HEad  -12.705 4.10876 -2.6748
LeftShoulder1  0.32342 2.47341 -25.1575
LeftArm  -11.1681 3.52235 -34.6908
LeftForeArm  72.8027 -79.1333 -90.002
LeftHand  0.00758418 3.72835 -2.07795
RightShoulder  -0.197562 -4.11987 24.4093
RightArm  -9.86549 -11.8663 36.5588
RightForeArm  95.7539 76.8136 121.897
RightHand  -0.128767 0.318635 -2.67317
LeftUpLeg  -7.51154 4.40073 -7.74264
LeftLeg  22.9387 0.582384 0.604437
LeftFoot  -4.27992 -0.407656 7.0144
LeftToes  -1.03319e-009 7.52634e-011 -3.26162e-012
604
root  11.7479 38.4191 0.336884 -125.164 -84.1208 114.216
RightUpLeg  -5.10867 6.23034 -10.9096
RightLeg  63.3773 2.94123 5.77434
RightFoot  4.04364 -1.10128 8.34727
RightToes  -1.33073e-015 0 -3.6325e-017
Spine  7.20153 1.06437 -7.31257
Spine1  10.4404 -0.0277022 -0.793838
HEad  -12.1174 4.21955 -2.90508
LeftShoulder1  0.358211 2.35609 -24.9652
LeftArm  -11.4437 3.22533 -34.9132
LeftForeArm  71.3658 -79.1339 -88.4397
LeftHand  0.00829236 3.80631 -2.32615
RightShoulder  -0.271904 -4.34943 24.8851
RightArm  -9.86147 -11.6431 36.4732
RightForeArm  96.699 76.8971 121.686
RightHand  -0.107523 -0.482064 -2.49878
LeftUpLeg  -5.61147 4.15137 -7.76707
LeftLeg  22.3095 0.382361 0.457436
LeftFoot  -5.795 -0.298619 6.87276
LeftToes  -1.03319e-009 7.52634e-011 -3.26162e-012
605
root  10.7554 38.6064 0.445192 -119.908 -84.9799 109.117
RightUpLeg  -9.38344 5.09103 -9.882
RightLeg  63.2201 2.48044 4.81555
RightFoot  2.74877 -1.00989 8.29427
RightToes  -1.33073e-015 0 -3.6325e-017
Spine  7.26555 0.64795 -7.73914
Spine1  10.0471 -0.734764 -0.00412802
HEad  -11.1586 3.85002 -2.68293
LeftShoulder1  0.351124 2.38433 -25.1268
LeftArm  -11.6234 2.87852 -35.2001
LeftForeArm  69.4953 -79.1251 -86.3781
LeftHand  0.012313 3.5594 -2.22865
RightShoulder  -0.226546 -4.21331 24.4839
RightArm  -10.0752 -12.0361 37.1355
RightForeArm  96.1018 76.8678 121.692
RightHand  -0.10696 -0.0324942 -2.32652
LeftUpLeg  -3.49491 4.20903 -7.25969
LeftLeg  21.2842 -0.488001 0.0153118
LeftFoot  -7.05577 -0.215018 6.8896
LeftToes  -1.03319e-009 7.52634e-011 -3.26162e-012
606
root  9.75597 38.8267 0.590197 -112.591 -85.9459 102.031
RightUpLeg  -12.6607 3.72693 -8.6728
RightLeg  59.4819 1.67635 2.63607
RightFoot  1.24722 -0.855305 7.85583
RightToes  -1.33073e-015 0 -3.6325e-017
Spine  7.15786 0.123108 -7.48287
Spine1  9.74015 -1.28981 0.508835
HEad  -10.6777 3.73396 -2.22463
LeftShoulder1  0.363043 2.34712 -25.1487
LeftArm  -11.7531 2.65167 -35.6211
LeftForeArm  69.434 -79.1285 -86.1729
LeftHand  0.0105799 3.75625 -1.81964
RightShoulder  -0.268376 -4.34449 24.651
RightArm  -10.1396 -11.8852 37.003
RightForeArm  95.0939 76.8509 121.524
RightHand  -0.145153 1.19231 -2.70065
LeftUpLeg  -1.13867 4.84815 -6.50823
LeftLeg  19.5992 -1.83918 -0.58101
LeftFoot  -7.90922 -0.173235 7.34739
LeftToes  -1.03319e-009 7.52634e-011 -3.26162e-012
607
root  8.77544 38.9807 0.709056 -105.502 -86.699 94.8927
RightUpLeg  -14.5825 2.90845 -7.44799
RightLeg  52.6663 1.04193 1.07632
RightFoot  -0.963858 -0.824206 8.97013
RightToes  -1.33073e-015 0 -3.6325e-017
Spine  7.74166 -0.127531 -7.24187
Spine1  9.00943 -1.60077 1.0672
HEad  -10.3175 3.33326 -1.67437
LeftShoulder1  0.409586 2.19487 -25.0587
LeftArm  -11.7814 2.46011 -35.9966
LeftForeArm  70.3857 -79.1492 -86.8195
LeftHand  0.0102741 4.10168 -2.27414
RightShoulder  -0.303735 -4.45826 24.668
RightArm  -10.6469 -12.0928 36.6306
RightForeArm  96.6243 76.6286 123.085
RightHand  -0.13324 0.201426 -2.81217
LeftUpLeg  1.33477 5.33031 -5.75754
LeftLeg  18.2132 -2.91767 -0.919782
LeftFoot  -8.95278 -0.102295 7.5039
LeftToes  -1.03319e-009 7.52634e-011 -3.26162e-012
608
root  7.77942 39.0593 0.829918 -94.515 -86.8585 84.1238
RightUpLeg  -15.7532 1.89219 -6.92449
RightLeg  43.3867 1.21409 0.921825
RightFoot  -1.73279 -0.78564 9.18461
RightToes  -1.33073e-015 0 -3.6325e-017
Spine  7.60448 -0.467427 -7.3943
Spine1  8.90029 -1.92301 1.47657
HEad  -10.4899 3.36775 -1.70472
LeftShoulder1  0.421231 2.14729 -24.8093
LeftArm  -11.7043 2.18361 -36.4346
LeftForeArm  70.8548 -79.1597 -87.1148
LeftHand  0.0157839 3.8358 -2.39689
RightShoulder  -0.254286 -4.30577 24.3683
RightArm  -11.1294 -12.3323 36.659
RightForeArm  97.1103 76.3811 124.436
RightHand  -0.15241 1.11775 -2.84142
LeftUpLeg  3.44292 5.79094 -5.51394
LeftLeg  16.963 -3.92052 -1.27405
LeftFoot  -9.8379 -0.0474809 8.1261
LeftToes  -1.03319e-009 7.52634e-011 -3.26162e-012
609
root  6.75544 39.1067 0.941979 -82.3174 -86.7534 72.6009
RightUpLeg  -16.2868 1.03191 -6.55475
RightLeg  31.988 1.8669 1.04887
RightFoot  -1.16763 -0.847479 9.40966
RightToes  -1.33073e-015 0 -3.6325e-017
Spine  6.96685 -0.799798 -7.56267
Spine1  8.81849 -2.20345 2.00656
HEad  -10.5836 2.88493 -1.79227
LeftShoulder1  0.369689 2.32346 -25.0761
LeftArm  -11.1942 1.49265 -36.4939
LeftForeArm  69.9611 -79.14 -86.5365
LeftHand  0.0209847 3.29451 -2.28344
RightShoulder  -0.215321 -4.18973 23.9047
RightArm  -11.6553 -12.6327 36.5446
RightForeArm  98.8793 76.1191 126.071
RightHand  -0.15871 0.31231 -3.24388
LeftUpLeg  5.10153 6.01839 -5.44749
LeftLeg  15.6833 -4.84364 -1.55892
LeftFoot  -10.874 0.0309085 8.3583
LeftToes  -1.03319e-009 7.52634e-011 -3.26162e-012
610
root  5.68327 39.1164 1.05544 -73.2418 -86.4595 63.6828
RightUpLeg  -15.3819 0.401904 -6.33731
RightLeg  19.6024 2.83191 0.790737
RightFoot  -1.0641 -0.882925 9.71697
RightToes  -1.33073e-015 0 -3.6325e-017
Spine  6.57828 -1.07213 -7.19627
Spine1  9.03482 -2.2816 1.83888
HEad  -11.0209 2.61624 -1.36541
LeftShoulder1  0.402164 2.22253 -25.1566
LeftArm  -10.961 0.975812 -36.5255
LeftForeArm  69.5178 -79.1417 -85.8471
LeftHand  0.0206667 3.30633 -2.25795
RightShoulder  -0.265959 -4.34644 24.2954
RightArm  -12.1185 -12.5421 36.063
RightForeArm  101.128 75.8659 127.682
RightHand  -0.10446 -0.551313 -2.47325
LeftUpLeg  7.49615 6.14611 -5.49792
LeftLeg  14.2354 -5.38863 -1.56008
LeftFoot  -12.0007 0.119696 8.21011
LeftToes  -1.03319e-009 7.52634e-011 -3.26162e-012
611
root  4.58271 39.0948 1.12358 -68.2185 -86.3962 58.5205
RightUpLeg  -13.9354 -1.61721 -5.26335
RightLeg  8.04534 5.75495 -0.238959
RightFoot  -1.19311 -0.789444 8.77343
RightToes  -1.33073e-015 0 -3.6325e-017
Spine  6.63405 -1.14722 -6.55559
Spine1  9.06722 -2.22463 1.7413
HEad  -10.7738 2.09069 -1.4259
LeftShoulder1  0.420525 2.16025 -25.0638
LeftArm  -10.8484 0.552821 -36.6828
LeftForeArm  68.3032 -79.1224 -84.6535
LeftHand  0.0291138 3.33676 -2.781
RightShoulder  -0.27579 -4.37659 24.3576
RightArm  -12.4921 -12.8832 36.0285
RightForeArm  101.5 75.6976 128.464
RightHand  -0.148538 1.02689 -2.80281
LeftUpLeg  10.2486 6.62977 -4.9946
LeftLeg  12.8911 -6.22339 -1.76257
LeftFoot  -13.1571 0.211141 8.2911
LeftToes  -1.03319e-009 7.52634e-011 -3.26162e-012
